HIERARCHY
ROOT mixamorig1:Hips
{
	OFFSET 0.000000 96.705864 0.000000
	CHANNELS 6 Xposition Yposition Zposition Xrotation Yrotation Zrotation
	JOINT mixamorig1:Spine
	{
		OFFSET 0.000000 6.609299 -0.131400
		CHANNELS 3 Xrotation Yrotation Zrotation
		JOINT mixamorig1:Spine1
		{
			OFFSET 0.000000 7.710777 -0.153319
			CHANNELS 3 Xrotation Yrotation Zrotation
			JOINT mixamorig1:Spine2
			{
				OFFSET 0.000000 8.812363 -0.175222
				CHANNELS 3 Xrotation Yrotation Zrotation
				JOINT mixamorig1:Neck
				{
					OFFSET 0.000000 9.913940 -0.197125
					CHANNELS 3 Xrotation Yrotation Zrotation
					JOINT mixamorig1:Head
					{
						OFFSET 0.000000 6.221207 -0.292800
						CHANNELS 3 Xrotation Yrotation Zrotation
						JOINT mixamorig1:HeadTop_End
						{
							OFFSET 0.000000 23.669601 -1.114100
							CHANNELS 3 Xrotation Yrotation Zrotation
							End Site
							{
								OFFSET 0.000000 23.695801 0.000000
							}
						}
					}
				}
				JOINT mixamorig1:LeftShoulder
				{
					OFFSET 3.592800 8.511703 -0.210352
					CHANNELS 3 Xrotation Yrotation Zrotation
					JOINT mixamorig1:LeftArm
					{
						OFFSET 7.289550 -2.739891 -0.026446
						CHANNELS 3 Xrotation Yrotation Zrotation
						JOINT mixamorig1:LeftForeArm
						{
							OFFSET 22.236786 0.000000 -0.000001
							CHANNELS 3 Xrotation Yrotation Zrotation
							JOINT mixamorig1:LeftHand
							{
								OFFSET 22.885803 0.000000 -0.000001
								CHANNELS 3 Xrotation Yrotation Zrotation
								JOINT mixamorig1:LeftHandThumb1
								{
									OFFSET 2.242302 -0.961288 1.492217
									CHANNELS 3 Xrotation Yrotation Zrotation
									JOINT mixamorig1:LeftHandThumb2
									{
										OFFSET 1.772182 -1.023170 1.023169
										CHANNELS 3 Xrotation Yrotation Zrotation
										JOINT mixamorig1:LeftHandThumb3
										{
											OFFSET 1.895149 -1.094162 1.094165
											CHANNELS 3 Xrotation Yrotation Zrotation
											JOINT mixamorig1:LeftHandThumb4
											{
												OFFSET 1.594837 -0.920776 0.920780
												CHANNELS 3 Xrotation Yrotation Zrotation
												End Site
												{
													OFFSET 1.438717 -0.901840 1.164461
												}
											}
										}
									}
								}
								JOINT mixamorig1:LeftHandIndex1
								{
									OFFSET 6.533081 -0.226440 1.405166
									CHANNELS 3 Xrotation Yrotation Zrotation
									JOINT mixamorig1:LeftHandIndex2
									{
										OFFSET 2.386898 0.000000 -0.000000
										CHANNELS 3 Xrotation Yrotation Zrotation
										JOINT mixamorig1:LeftHandIndex3
										{
											OFFSET 2.200699 0.000000 -0.000000
											CHANNELS 3 Xrotation Yrotation Zrotation
											JOINT mixamorig1:LeftHandIndex4
											{
												OFFSET 1.988098 0.000000 -0.000000
												CHANNELS 3 Xrotation Yrotation Zrotation
												End Site
												{
													OFFSET 1.988098 -0.000008 -0.000700
												}
											}
										}
									}
								}
								JOINT mixamorig1:LeftHandMiddle1
								{
									OFFSET 6.412628 0.000000 -0.000000
									CHANNELS 3 Xrotation Yrotation Zrotation
									JOINT mixamorig1:LeftHandMiddle2
									{
										OFFSET 2.737003 0.000000 -0.000000
										CHANNELS 3 Xrotation Yrotation Zrotation
										JOINT mixamorig1:LeftHandMiddle3
										{
											OFFSET 2.474899 0.000000 -0.000000
											CHANNELS 3 Xrotation Yrotation Zrotation
											JOINT mixamorig1:LeftHandMiddle4
											{
												OFFSET 2.337997 0.000000 -0.000000
												CHANNELS 3 Xrotation Yrotation Zrotation
												End Site
												{
													OFFSET 2.337997 0.000015 0.001700
												}
											}
										}
									}
								}
								JOINT mixamorig1:LeftHandRing1
								{
									OFFSET 6.369144 -0.145943 -1.505743
									CHANNELS 3 Xrotation Yrotation Zrotation
									JOINT mixamorig1:LeftHandRing2
									{
										OFFSET 2.271301 0.000000 0.000000
										CHANNELS 3 Xrotation Yrotation Zrotation
										JOINT mixamorig1:LeftHandRing3
										{
											OFFSET 2.183403 0.000000 0.000000
											CHANNELS 3 Xrotation Yrotation Zrotation
											JOINT mixamorig1:LeftHandRing4
											{
												OFFSET 1.894501 0.000000 0.000000
												CHANNELS 3 Xrotation Yrotation Zrotation
												End Site
												{
													OFFSET 1.894501 0.000008 0.002500
												}
											}
										}
									}
								}
								JOINT mixamorig1:LeftHandPinky1
								{
									OFFSET 5.673996 -0.166138 -2.637913
									CHANNELS 3 Xrotation Yrotation Zrotation
									JOINT mixamorig1:LeftHandPinky2
									{
										OFFSET 2.152199 0.000000 0.000000
										CHANNELS 3 Xrotation Yrotation Zrotation
										JOINT mixamorig1:LeftHandPinky3
										{
											OFFSET 1.719402 0.000000 0.000000
											CHANNELS 3 Xrotation Yrotation Zrotation
											JOINT mixamorig1:LeftHandPinky4
											{
												OFFSET 1.555099 0.000000 0.000000
												CHANNELS 3 Xrotation Yrotation Zrotation
												End Site
												{
													OFFSET 1.555099 0.000000 0.000100
												}
											}
										}
									}
								}
							}
						}
					}
				}
				JOINT mixamorig1:RightShoulder
				{
					OFFSET -3.592800 8.511719 -0.183947
					CHANNELS 3 Xrotation Yrotation Zrotation
					JOINT mixamorig1:RightArm
					{
						OFFSET -7.289540 -2.739922 0.026446
						CHANNELS 3 Xrotation Yrotation Zrotation
						JOINT mixamorig1:RightForeArm
						{
							OFFSET -22.237789 0.000008 0.000001
							CHANNELS 3 Xrotation Yrotation Zrotation
							JOINT mixamorig1:RightHand
							{
								OFFSET -22.885906 0.000000 0.000001
								CHANNELS 3 Xrotation Yrotation Zrotation
								JOINT mixamorig1:RightHandThumb1
								{
									OFFSET -2.210213 -0.972252 1.433693
									CHANNELS 3 Xrotation Yrotation Zrotation
									JOINT mixamorig1:RightHandThumb2
									{
										OFFSET -1.740135 -1.004669 1.004668
										CHANNELS 3 Xrotation Yrotation Zrotation
										JOINT mixamorig1:RightHandThumb3
										{
											OFFSET -1.916977 -1.106766 1.106768
											CHANNELS 3 Xrotation Yrotation Zrotation
											JOINT mixamorig1:RightHandThumb4
											{
												OFFSET -1.669712 -0.964012 0.964009
												CHANNELS 3 Xrotation Yrotation Zrotation
												End Site
												{
													OFFSET -1.564342 -0.957275 1.132703
												}
											}
										}
									}
								}
								JOINT mixamorig1:RightHandIndex1
								{
									OFFSET -6.642605 -0.242622 1.429156
									CHANNELS 3 Xrotation Yrotation Zrotation
									JOINT mixamorig1:RightHandIndex2
									{
										OFFSET -2.322498 0.000000 0.000000
										CHANNELS 3 Xrotation Yrotation Zrotation
										JOINT mixamorig1:RightHandIndex3
										{
											OFFSET -2.152603 0.000000 0.000000
											CHANNELS 3 Xrotation Yrotation Zrotation
											JOINT mixamorig1:RightHandIndex4
											{
												OFFSET -1.991699 0.000000 0.000000
												CHANNELS 3 Xrotation Yrotation Zrotation
												End Site
												{
													OFFSET -1.991699 0.000008 -0.002700
												}
											}
										}
									}
								}
								JOINT mixamorig1:RightHandMiddle1
								{
									OFFSET -6.285316 0.000000 0.000000
									CHANNELS 3 Xrotation Yrotation Zrotation
									JOINT mixamorig1:RightHandMiddle2
									{
										OFFSET -2.708908 0.000000 0.000000
										CHANNELS 3 Xrotation Yrotation Zrotation
										JOINT mixamorig1:RightHandMiddle3
										{
											OFFSET -2.556503 0.000000 0.000000
											CHANNELS 3 Xrotation Yrotation Zrotation
											JOINT mixamorig1:RightHandMiddle4
											{
												OFFSET -2.418808 0.000000 0.000000
												CHANNELS 3 Xrotation Yrotation Zrotation
												End Site
												{
													OFFSET -2.418800 -0.000031 0.006600
												}
											}
										}
									}
								}
								JOINT mixamorig1:RightHandRing1
								{
									OFFSET -6.311737 -0.140022 -1.484962
									CHANNELS 3 Xrotation Yrotation Zrotation
									JOINT mixamorig1:RightHandRing2
									{
										OFFSET -2.346802 0.000000 0.000000
										CHANNELS 3 Xrotation Yrotation Zrotation
										JOINT mixamorig1:RightHandRing3
										{
											OFFSET -2.156898 0.000000 0.000000
											CHANNELS 3 Xrotation Yrotation Zrotation
											JOINT mixamorig1:RightHandRing4
											{
												OFFSET -2.027908 0.000000 0.000000
												CHANNELS 3 Xrotation Yrotation Zrotation
												End Site
												{
													OFFSET -2.027901 -0.000053 0.006000
												}
											}
										}
									}
								}
								JOINT mixamorig1:RightHandPinky1
								{
									OFFSET -5.732719 -0.184929 -2.709892
									CHANNELS 3 Xrotation Yrotation Zrotation
									JOINT mixamorig1:RightHandPinky2
									{
										OFFSET -2.102402 0.000000 0.000000
										CHANNELS 3 Xrotation Yrotation Zrotation
										JOINT mixamorig1:RightHandPinky3
										{
											OFFSET -1.653503 0.000000 0.000000
											CHANNELS 3 Xrotation Yrotation Zrotation
											JOINT mixamorig1:RightHandPinky4
											{
												OFFSET -1.581902 0.000000 0.000000
												CHANNELS 3 Xrotation Yrotation Zrotation
												End Site
												{
													OFFSET -1.581902 0.000000 -0.000500
												}
											}
										}
									}
								}
							}
						}
					}
				}
			}
		}
	}
	JOINT mixamorig1:LeftUpLeg
	{
		OFFSET 5.970200 -11.540100 -0.123100
		CHANNELS 3 Xrotation Yrotation Zrotation
		JOINT mixamorig1:LeftLeg
		{
			OFFSET 0.198467 -31.475304 -0.169218
			CHANNELS 3 Xrotation Yrotation Zrotation
			JOINT mixamorig1:LeftFoot
			{
				OFFSET -0.198476 -45.868210 -5.442563
				CHANNELS 3 Xrotation Yrotation Zrotation
				JOINT mixamorig1:LeftToeBase
				{
					OFFSET 0.088007 -7.354763 11.880190
					CHANNELS 3 Xrotation Yrotation Zrotation
					JOINT mixamorig1:LeftToe_End
					{
						OFFSET 0.223626 0.001065 5.232024
						CHANNELS 3 Xrotation Yrotation Zrotation
						End Site
						{
							OFFSET 0.223626 0.001065 5.232023
						}
					}
				}
			}
		}
	}
	JOINT mixamorig1:RightUpLeg
	{
		OFFSET -5.970200 -11.540100 -0.123100
		CHANNELS 3 Xrotation Yrotation Zrotation
		JOINT mixamorig1:RightLeg
		{
			OFFSET -0.198455 -31.475277 -0.097332
			CHANNELS 3 Xrotation Yrotation Zrotation
			JOINT mixamorig1:RightFoot
			{
				OFFSET 0.198464 -45.868233 -5.038831
				CHANNELS 3 Xrotation Yrotation Zrotation
				JOINT mixamorig1:RightToeBase
				{
					OFFSET -0.087992 -7.354682 11.311314
					CHANNELS 3 Xrotation Yrotation Zrotation
					JOINT mixamorig1:RightToe_End
					{
						OFFSET -0.223623 0.001091 5.048450
						CHANNELS 3 Xrotation Yrotation Zrotation
						End Site
						{
							OFFSET -0.223623 0.001091 5.048450
						}
					}
				}
			}
		}
	}
}
MOTION
Frames: 4
Frame Time: 0.033333
0.447988 89.230652 0.592643 -4.304127 -71.904714 -6.502219 14.083022 -1.819458 0.379225 6.921690 -1.120598 -0.052266 6.922354 -1.120145 -0.025596 -0.600130 1.129546 -0.306597 -0.601308 1.125726 -0.317983 0.000002 0.000001 0.000001 0.670857 -9.573312 -7.836349 -20.358863 -70.786783 -52.798025 0.000061 -49.447571 0.000053 -20.609613 -12.023762 29.742701 12.918575 -14.352068 3.766698 -7.464487 38.549779 4.014203 2.520147 25.042653 25.644398 -0.000000 0.000003 0.000001 -0.003122 3.517071 -25.047024 5.392013 5.833119 -85.492358 1.138958 3.472497 -36.309094 0.000002 -0.000000 0.000002 1.040764 5.695724 -26.426400 4.731310 5.743289 -78.948080 1.665168 4.091854 -44.273788 0.000002 -0.000000 0.000000 0.502462 4.733760 -31.731806 5.174299 5.811933 -83.346538 1.678779 4.105711 -44.464115 -0.000003 -0.000000 0.000000 -0.296965 3.719402 -35.394177 4.771118 5.750912 -79.345891 0.921017 3.155030 -32.540220 -0.000001 -0.000001 0.000001 0.570118 12.786641 9.786660 -20.702035 13.088288 47.751400 -0.000042 87.356330 0.000047 -37.275450 5.514386 -3.713272 11.465393 24.105602 10.468517 -4.963190 -36.723752 -15.282016 3.614972 -37.001857 -26.660539 -0.000000 0.000000 -0.000001 -4.243249 -1.792207 55.650155 2.182800 -3.946729 57.878306 1.337690 -3.268361 44.507681 -0.000000 0.000000 0.000000 -0.401997 -4.272624 53.100951 2.281440 -4.006782 59.300502 1.784740 -3.667345 51.887871 0.000000 0.000000 0.000000 1.038818 -5.285604 50.092904 2.441001 -4.097119 61.558460 1.928822 -3.775738 54.107714 0.000000 0.000000 -0.000002 3.552064 -7.249837 52.615577 1.453459 -3.381915 46.503404 1.796597 -3.676617 52.073523 -0.000000 0.000000 -0.000000 -35.252065 15.635932 30.425153 35.065617 5.894834 1.141075 1.769088 0.309272 -14.509330 -0.420618 -0.000010 0.000002 0.000000 -0.000002 0.000000 -31.426800 -9.813860 -17.273398 33.659647 7.979064 -5.530778 -6.366905 2.877469 20.271935 -0.366116 -0.000003 0.000014 -0.000000 -0.000001 0.000000 
0.416827 89.322479 0.648108 -3.965207 -71.940709 -6.212837 13.860790 -1.744357 0.438235 6.821332 -1.079080 -0.023302 6.821920 -1.077938 0.001831 -0.589464 1.122095 -0.302573 -0.590378 1.118448 -0.313935 0.000001 0.000000 -0.000000 0.684156 -9.448254 -7.552407 -21.252728 -71.044138 -53.911055 -0.000011 -49.466515 -0.000005 -20.875380 -11.915708 29.712464 12.918577 -14.352070 3.766697 -7.464478 38.549779 4.014208 2.520147 25.042653 25.644396 0.000000 0.000000 -0.000002 -0.003124 3.517069 -25.047019 5.392015 5.833120 -85.492358 1.138956 3.472499 -36.309091 -0.000001 0.000000 0.000001 1.040763 5.695722 -26.426400 4.731309 5.743287 -78.948080 1.665170 4.091849 -44.273792 -0.000000 0.000001 -0.000001 0.502461 4.733760 -31.731802 5.174300 5.811939 -83.346538 1.678783 4.105711 -44.464118 0.000002 -0.000001 0.000000 -0.296966 3.719402 -35.394177 4.771117 5.750910 -79.345891 0.921018 3.155029 -32.540213 -0.000003 -0.000000 0.000001 0.612677 12.604226 9.262726 -20.466151 12.874574 48.058287 -0.000328 87.538846 0.000374 -37.614084 5.484320 -3.752177 11.465394 24.105597 10.468518 -4.963193 -36.723759 -15.282014 3.614980 -37.001857 -26.660545 -0.000003 -0.000003 -0.000001 -4.243249 -1.792208 55.650155 2.182801 -3.946727 57.878299 1.337690 -3.268360 44.507671 0.000000 -0.000000 0.000000 -0.401997 -4.272625 53.100947 2.281440 -4.006782 59.300502 1.784741 -3.667345 51.887871 -0.000000 -0.000000 -0.000001 1.038818 -5.285605 50.092904 2.441001 -4.097118 61.558453 1.928823 -3.775738 54.107707 0.000000 -0.000000 -0.000000 3.552064 -7.249838 52.615580 1.453460 -3.381915 46.503401 1.796594 -3.676618 52.073519 -0.000000 0.000000 0.000000 -35.063268 15.596348 30.288795 34.750852 6.116305 1.131967 1.850163 0.295809 -14.517284 -0.418155 -0.000027 -0.000001 0.000000 -0.000001 0.000000 -31.184424 -9.818410 -17.150581 33.185922 7.989177 -5.530128 -6.313185 2.860408 20.201879 -0.208454 -0.000009 -0.000007 0.000000 0.000000 0.000000 
0.386468 89.410202 0.697217 -3.649365 -71.972121 -5.936248 13.661205 -1.688823 0.493377 6.730322 -1.045542 0.005152 6.730881 -1.043528 0.028750 -0.580754 1.114022 -0.298771 -0.581574 1.110437 -0.310037 -0.000002 0.000000 -0.000000 0.696871 -9.365619 -7.285093 -22.369558 -71.036201 -55.286908 -0.000002 -49.567134 0.000021 -20.941478 -11.727276 29.593342 12.918575 -14.352075 3.766703 -7.464480 38.549789 4.014211 2.520145 25.042661 25.644389 -0.000001 0.000001 0.000003 -0.003126 3.517069 -25.047021 5.392014 5.833117 -85.492358 1.138955 3.472497 -36.309091 0.000002 0.000000 -0.000001 1.040762 5.695721 -26.426398 4.731308 5.743290 -78.948080 1.665168 4.091852 -44.273788 0.000001 -0.000000 0.000001 0.502459 4.733760 -31.731802 5.174301 5.811939 -83.346538 1.678779 4.105713 -44.464111 0.000001 -0.000000 -0.000000 -0.296967 3.719402 -35.394177 4.771116 5.750913 -79.345891 0.921018 3.155031 -32.540213 -0.000002 0.000001 -0.000001 0.647455 12.412607 8.814630 -20.324647 12.677651 48.402371 -0.000104 87.709089 0.000191 -37.823419 5.384831 -3.717873 11.465386 24.105601 10.468516 -4.963192 -36.723752 -15.282017 3.614979 -37.001857 -26.660551 -0.000001 -0.000005 0.000001 -4.243251 -1.792208 55.650155 2.182800 -3.946728 57.878306 1.337690 -3.268360 44.507678 0.000001 -0.000000 0.000001 -0.401998 -4.272626 53.100951 2.281441 -4.006783 59.300508 1.784740 -3.667345 51.887871 -0.000000 0.000000 -0.000000 1.038817 -5.285606 50.092904 2.441001 -4.097119 61.558460 1.928822 -3.775737 54.107707 -0.000000 0.000000 0.000002 3.552064 -7.249839 52.615584 1.453460 -3.381915 46.503401 1.796596 -3.676617 52.073519 0.000000 -0.000000 -0.000000 -34.860927 15.536040 30.124529 34.441830 6.379367 1.142029 1.938812 0.281841 -14.538080 -0.405283 0.000029 0.000002 -0.000000 0.000004 0.000000 -30.956084 -9.820083 -17.040615 32.739552 8.018222 -5.526727 -6.239667 2.803979 20.143882 -0.093542 -0.000022 -0.000006 -0.000000 0.000000 0.000000 
0.356242 89.497314 0.741338 -3.344108 -72.005596 -5.664973 13.444417 -1.658024 0.560990 6.631741 -1.026372 0.036380 6.632157 -1.024346 0.058634 -0.573872 1.106434 -0.294759 -0.574507 1.102952 -0.305997 -0.000000 0.000000 -0.000000 0.706198 -9.292754 -7.079734 -23.364503 -70.938399 -56.544281 0.000005 -49.652941 -0.000010 -21.001589 -11.541840 29.423857 12.918575 -14.352068 3.766704 -7.464476 38.549779 4.014205 2.520148 25.042658 25.644396 -0.000003 0.000001 0.000003 -0.003124 3.517069 -25.047016 5.392015 5.833119 -85.492351 1.138956 3.472498 -36.309091 0.000000 0.000000 -0.000001 1.040763 5.695721 -26.426395 4.731308 5.743291 -78.948080 1.665171 4.091851 -44.273792 -0.000000 0.000001 0.000000 0.502463 4.733757 -31.731802 5.174299 5.811934 -83.346538 1.678779 4.105711 -44.464115 -0.000002 -0.000001 -0.000000 -0.296966 3.719401 -35.394173 4.771116 5.750915 -79.345884 0.921018 3.155032 -32.540220 -0.000002 -0.000000 0.000001 0.678285 12.262708 8.404212 -20.198300 12.558974 48.700669 -0.000375 87.799999 0.000497 -37.978516 5.271256 -3.674345 11.465392 24.105606 10.468519 -4.963197 -36.723762 -15.282014 3.614972 -37.001850 -26.660545 -0.000002 -0.000003 -0.000001 -4.243249 -1.792208 55.650155 2.182800 -3.946726 57.878299 1.337690 -3.268361 44.507681 -0.000000 -0.000000 0.000001 -0.401996 -4.272626 53.100951 2.281440 -4.006782 59.300508 1.784740 -3.667344 51.887875 0.000000 0.000000 0.000001 1.038817 -5.285606 50.092908 2.441001 -4.097119 61.558460 1.928823 -3.775738 54.107707 0.000000 -0.000000 0.000003 3.552063 -7.249838 52.615580 1.453460 -3.381916 46.503398 1.796596 -3.676618 52.073523 -0.000000 -0.000000 -0.000000 -34.652845 15.475016 29.949806 34.127187 6.668624 1.165147 2.039577 0.267651 -14.565563 -0.381604 -0.000010 0.000000 0.000000 0.000002 0.000000 -30.752039 -9.826812 -16.958549 32.309233 8.037283 -5.503536 -6.096605 2.727565 20.168632 -0.104143 -0.000005 0.000002 -0.000000 0.000001 0.000000 
